<svg width="18" height="18" viewBox="0 0 18 18" fill="none" xmlns="http://www.w3.org/2000/svg">
<path d="M9 0C4.02891 0 0 4.02891 0 9C0 13.9711 4.02891 18 9 18C13.9711 18 18 13.9711 18 9C18 4.02891 13.9711 0 9 0ZM13.732 8.66953L9.79453 12.607C9.57656 12.8285 9.28828 12.9375 9 12.9375C8.71172 12.9375 8.42414 12.8276 8.20477 12.6079L4.26727 8.67041C3.82781 8.23096 3.82781 7.51904 4.26727 7.07959C4.70672 6.64014 5.41863 6.64014 5.85809 7.07959L9 10.2234L12.1423 7.08117C12.5817 6.64172 13.2936 6.64172 13.7331 7.08117C14.1725 7.52063 14.1715 8.23008 13.732 8.66953Z" fill="#0038FD"/>
</svg>
