<svg width="21" height="24" viewBox="0 0 21 24" fill="none" xmlns="http://www.w3.org/2000/svg">
<path d="M20.9576 12C20.9576 12.8297 20.3295 13.5 19.4998 13.5H5.1232L10.0638 18.4406C10.6498 19.0266 10.6498 19.9758 10.0638 20.5617C9.76852 20.8547 9.38414 21 8.99977 21C8.61539 21 8.23195 20.8535 7.93945 20.5605L0.439453 13.0605C-0.146484 12.4746 -0.146484 11.5254 0.439453 10.9395L7.93945 3.43945C8.52539 2.85352 9.47461 2.85352 10.0605 3.43945C10.6465 4.02539 10.6465 4.97461 10.0605 5.56055L5.1232 10.5H19.4998C20.3295 10.5 20.9576 11.1703 20.9576 12Z" fill="#0038FD"/>
</svg>
