<svg width="610" height="546" viewBox="0 0 610 546" fill="none" xmlns="http://www.w3.org/2000/svg">
<g clip-path="url(#clip0_6_64)">
<path d="M3.41813 122.517C2.22366 122.853 1.21121 123.649 0.60289 124.731C-0.00542975 125.813 -0.159954 127.092 0.17322 128.288L78.4143 407.84C78.7503 409.035 79.5463 410.048 80.6278 410.656C81.7093 411.265 82.9879 411.42 84.1831 411.086L372.62 330.285C373.814 329.949 374.826 329.152 375.435 328.07C376.043 326.988 376.198 325.709 375.864 324.513L297.623 44.9615C297.287 43.7665 296.491 42.7536 295.41 42.145C294.328 41.5364 293.05 41.3818 291.854 41.7152L3.41813 122.517Z" fill="#1D1D1D" fill-opacity="0.75"/>
<path d="M87.8079 397.886L362.67 320.887L288.229 54.9158L13.3678 131.915L87.8079 397.886Z" fill="white"/>
<path d="M49.7081 167.429C47.8743 167.943 47.1182 170.991 48.0227 174.223C48.9273 177.455 51.1553 179.666 52.9892 179.152L178.35 144.034C180.183 143.521 180.939 140.473 180.035 137.241C179.13 134.009 176.902 131.798 175.068 132.311L49.7081 167.429Z" fill="#1D1D1D" fill-opacity="0.5"/>
<path d="M59.8036 203.5C57.9698 204.014 57.2137 207.062 58.1183 210.294C59.0229 213.526 61.2509 215.737 63.0847 215.223L188.445 180.105C190.279 179.592 191.035 176.544 190.13 173.312C189.226 170.08 186.998 167.869 185.164 168.382L59.8036 203.5Z" fill="#1D1D1D" fill-opacity="0.5"/>
<path d="M69.7829 239.156C67.949 239.669 67.193 242.717 68.0975 245.949C69.0021 249.181 71.2301 251.392 73.0639 250.879L198.424 215.761C200.258 215.247 201.014 212.199 200.11 208.967C199.205 205.736 196.977 203.524 195.143 204.038L69.7829 239.156Z" fill="#1D1D1D" fill-opacity="0.5"/>
<path d="M79.8784 275.227C78.0446 275.74 77.2885 278.788 78.1931 282.02C79.0976 285.252 81.3257 287.463 83.1595 286.95L208.52 251.832C210.354 251.318 211.11 248.27 210.205 245.038C209.301 241.806 207.073 239.595 205.239 240.109L79.8784 275.227Z" fill="#1D1D1D" fill-opacity="0.5"/>
<path d="M238.687 114.905C237.917 115.12 237.197 115.485 236.568 115.978C235.938 116.472 235.413 117.085 235.02 117.782C234.628 118.479 234.376 119.246 234.281 120.04C234.185 120.835 234.247 121.64 234.462 122.41C234.678 123.18 235.043 123.901 235.537 124.53C236.031 125.159 236.644 125.684 237.341 126.076C238.039 126.468 238.806 126.718 239.6 126.813C240.394 126.908 241.199 126.845 241.969 126.628L265.404 120.063C266.958 119.628 268.275 118.593 269.066 117.186C269.857 115.779 270.057 114.115 269.622 112.561C269.187 111.006 268.153 109.688 266.746 108.896C265.34 108.105 263.677 107.905 262.123 108.34L238.687 114.905Z" fill="#1D1D1D" fill-opacity="0.5"/>
<path d="M248.587 150.277C247.817 150.492 247.097 150.857 246.468 151.35C245.838 151.844 245.312 152.456 244.92 153.153C244.528 153.85 244.276 154.618 244.181 155.412C244.085 156.206 244.147 157.012 244.362 157.782C244.578 158.552 244.943 159.273 245.437 159.902C245.931 160.531 246.544 161.056 247.241 161.448C247.939 161.839 248.706 162.09 249.5 162.185C250.294 162.28 251.099 162.217 251.868 162L275.304 155.435C276.858 155 278.175 153.965 278.966 152.558C279.757 151.151 279.957 149.487 279.522 147.932C279.087 146.378 278.053 145.06 276.646 144.268C275.24 143.477 273.577 143.277 272.023 143.712L248.587 150.277Z" fill="#1D1D1D" fill-opacity="0.5"/>
<path d="M258.487 185.649C257.718 185.865 256.998 186.23 256.37 186.723C255.742 187.217 255.217 187.83 254.825 188.526C254.433 189.223 254.183 189.99 254.087 190.784C253.992 191.577 254.054 192.382 254.269 193.152C254.484 193.922 254.849 194.641 255.343 195.27C255.836 195.899 256.449 196.424 257.145 196.816C257.841 197.208 258.608 197.459 259.401 197.554C260.195 197.649 260.999 197.588 261.768 197.372L285.204 190.807C286.758 190.372 288.075 189.337 288.866 187.93C289.657 186.523 289.857 184.859 289.422 183.304C288.987 181.75 287.953 180.432 286.546 179.64C285.14 178.849 283.477 178.649 281.923 179.084L258.487 185.649Z" fill="#1D1D1D" fill-opacity="0.5"/>
<path d="M268.387 221.021C266.835 221.458 265.52 222.493 264.73 223.899C263.94 225.306 263.741 226.968 264.176 228.522C264.61 230.075 265.644 231.392 267.049 232.184C268.453 232.976 270.115 233.177 271.668 232.744L295.104 226.179C296.656 225.742 297.971 224.707 298.761 223.3C299.551 221.894 299.75 220.231 299.315 218.678C298.881 217.124 297.847 215.807 296.442 215.016C295.037 214.224 293.376 214.023 291.823 214.456L268.387 221.021Z" fill="#1D1D1D" fill-opacity="0.5"/>
<path d="M277.846 282.332C276.864 282.606 275.946 283.071 275.145 283.7C274.343 284.328 273.673 285.109 273.173 285.997C272.673 286.885 272.353 287.863 272.231 288.875C272.109 289.887 272.187 290.913 272.462 291.895C272.737 292.877 273.202 293.794 273.832 294.596C274.461 295.397 275.242 296.067 276.131 296.566C277.019 297.065 277.997 297.384 279.008 297.505C280.02 297.626 281.046 297.546 282.026 297.27L311.888 288.905C313.868 288.35 315.547 287.031 316.555 285.238C317.563 283.446 317.818 281.325 317.263 279.345C316.709 277.364 315.391 275.684 313.598 274.676C311.806 273.667 309.687 273.412 307.707 273.967L277.846 282.332Z" fill="#0038FD"/>
<path d="M308.578 252.164L87.6049 314.067L88.1549 316.032L309.128 254.13L308.578 252.164Z" fill="#1D1D1D" fill-opacity="0.5"/>
<path d="M530.542 516.367L512.82 520.653L487.86 454.305L514.017 447.978L530.542 516.367Z" fill="#A0616A"/>
<path d="M482.244 546L482.124 545.504C480.72 539.663 481.688 533.503 484.818 528.376C487.947 523.248 492.982 519.572 498.817 518.154L533.492 509.767L538.934 532.289L482.244 546Z" fill="#2F2E41"/>
<path d="M452.087 528.446L433.855 528.445L425.181 458.086L452.09 458.087L452.087 528.446Z" fill="#A0616A"/>
<path d="M456.503 545.894L398.18 545.892V545.382C398.181 539.372 400.567 533.609 404.815 529.359C409.062 525.11 414.823 522.722 420.83 522.722H420.831L456.504 522.724L456.503 545.894Z" fill="#2F2E41"/>
<path d="M425.166 500.978L407.463 289.899L480.747 276.384L481.037 276.332L502.486 290.127L495.021 367.81L529.395 488.923L499.714 496.737L465.285 384.412L457.406 350.254L453.368 394.64L456.366 504.1L425.166 500.978Z" fill="#2F2E41"/>
<path d="M405.193 294.687L404.999 294.441L430.323 103.68L430.356 103.43L430.535 103.252C430.908 102.878 439.781 94.1064 448.907 94.1064C450.226 94.1064 451.481 94.073 452.684 94.0425C459.668 93.8608 465.184 93.7155 471.741 100.276C478.421 106.958 500.216 131.36 500.216 164.781C500.216 197.13 503.16 297.658 503.19 298.669L503.231 300.089L502.041 299.314C501.748 299.126 472.434 280.451 447.848 297.811C440.166 303.236 433.264 305.138 427.362 305.138C413.626 305.138 405.311 294.836 405.193 294.687Z" fill="#1D1D1D"/>
<path d="M462.552 78.3664C480.253 68.6855 486.758 46.4814 477.082 28.7719C467.405 11.0625 445.211 4.55405 427.51 14.2349C409.809 23.9158 403.303 46.12 412.98 63.8294C422.656 81.5388 444.85 88.0472 462.552 78.3664Z" fill="#A0616A"/>
<path d="M389.114 335.682C390.842 334.343 392.255 332.64 393.254 330.694C394.254 328.749 394.815 326.608 394.897 324.422C394.98 322.236 394.583 320.059 393.733 318.044C392.884 316.028 391.603 314.223 389.981 312.757L410.725 263.805L383.564 268.806L368.03 314.525C365.747 317.414 364.604 321.04 364.815 324.717C365.027 328.394 366.579 331.865 369.178 334.473C371.777 337.081 375.242 338.644 378.916 338.867C382.59 339.09 386.219 337.957 389.114 335.682H389.114Z" fill="#A0616A"/>
<path d="M369.072 297.604L375.752 283.495C375.339 283.247 374.999 282.894 374.766 282.472C368.525 271.652 406.222 181.793 408.734 175.833C408.351 172.591 404.394 138.239 407.287 126.66C410.693 113.029 417.687 106.676 430.673 105.418C444.993 104.073 448.857 123.529 448.894 123.726L448.907 173.743L432.472 231.319L394.989 307.817L369.072 297.604Z" fill="#1D1D1D"/>
<path d="M449.701 60.0685C445.323 60.6385 442.02 56.1564 440.488 52.0131C438.956 47.8699 437.788 43.0463 433.981 40.8082C428.78 37.7505 422.126 41.4281 416.178 40.4192C409.461 39.2799 405.094 32.1581 404.751 25.3508C404.409 18.5435 407.117 11.9964 409.774 5.72019L410.701 13.5201C410.577 10.8765 411.133 8.24529 412.316 5.87814C413.499 3.51098 415.269 1.48706 417.457 -3.05176e-05L416.262 11.4452C417.011 5.03328 423.916 0.0649357 430.23 1.39368L430.042 8.21313C437.8 7.2902 445.626 6.36599 453.407 7.06912C461.188 7.77224 469.023 10.2352 474.921 15.362C483.742 23.0307 486.964 35.6583 485.882 47.3C484.801 58.9417 479.997 69.8782 474.991 80.443C473.731 83.1011 471.989 86.1006 469.068 86.4392C466.444 86.7435 464.043 84.5487 463.227 82.0347C462.411 79.5207 462.809 76.7896 463.298 74.192C464.036 70.268 464.966 66.2572 464.272 62.3251C463.578 58.3931 460.751 54.5075 456.789 54.0256C452.827 53.5437 448.773 58.0744 450.678 61.5832L449.701 60.0685Z" fill="#2F2E41"/>
<path d="M609.61 545.977H346.749V543.828H610L609.61 545.977Z" fill="#3F3D56"/>
</g>
<defs>
<clipPath id="clip0_6_64">
<rect width="610" height="546" fill="white"/>
</clipPath>
</defs>
</svg>
