<svg width="21" height="22" viewBox="0 0 21 22" fill="none" xmlns="http://www.w3.org/2000/svg">
<path fill-rule="evenodd" clip-rule="evenodd" d="M1.59254 2.10904C2.20645 1.49594 3.20086 1.49571 3.81506 2.10851L19.4065 17.6646C20.0223 18.279 20.0225 19.2765 19.407 19.8911V19.8911C18.7931 20.5042 17.7987 20.5045 17.1845 19.8917L1.59307 4.33556C0.977303 3.72119 0.977067 2.72369 1.59254 2.10904V2.10904Z" fill="#1D1D1D"/>
<path fill-rule="evenodd" clip-rule="evenodd" d="M1.59367 19.8921C0.977203 19.2776 0.976967 18.2793 1.59314 17.6645L17.1846 2.10844C17.7984 1.49605 18.792 1.49581 19.4061 2.10792V2.10792C20.0225 2.72241 20.0228 3.72071 19.4066 4.33549L3.81514 19.8916C3.20135 20.504 2.20774 20.5042 1.59367 19.8921V19.8921Z" fill="#1D1D1D"/>
</svg>
